<svg xmlns="http://www.w3.org/2000/svg" xmlns:xlink="http://www.w3.org/1999/xlink" width="256" zoomAndPan="magnify" viewBox="0 0 192 191.999996" height="256" preserveAspectRatio="xMidYMid meet" version="1.0"><defs><clipPath id="e428779b2c"><path d="M 26.121094 32 L 157 32 L 157 163 L 26.121094 163 Z M 26.121094 32 " clip-rule="nonzero"/></clipPath></defs><path fill="#5ce1e6" d="M 55.070312 86.847656 C 65.65625 98.851562 74.339844 110.460938 79.050781 121.253906 C 82.207031 128.476562 87.339844 140.035156 93.191406 126.757812 C 111.738281 84.78125 136.277344 59.015625 159.167969 28.808594 C 165.761719 20.105469 152.832031 28.367188 150.300781 30.597656 C 124.761719 53.046875 104.867188 73.988281 89.9375 104.957031 C 81.976562 93.859375 73.199219 86.5 63.9375 81.183594 C 56.671875 77.003906 47.757812 78.609375 55.046875 86.847656 Z M 55.070312 86.847656 " fill-opacity="1" fill-rule="evenodd"/><g clip-path="url(#e428779b2c)"><path fill="#5ce1e6" d="M 46.527344 32.757812 C 35.289062 32.757812 26.121094 41.949219 26.121094 53.164062 L 26.121094 142.566406 C 26.121094 153.804688 35.3125 162.972656 46.527344 162.972656 L 135.929688 162.972656 C 147.164062 162.972656 156.335938 153.78125 156.335938 142.566406 L 156.335938 85.875 L 142.871094 85.875 L 142.871094 133.304688 C 142.871094 142.21875 135.582031 149.484375 126.691406 149.484375 L 55.765625 149.484375 C 46.851562 149.484375 39.585938 142.195312 39.585938 133.304688 L 39.585938 62.402344 C 39.585938 53.488281 46.875 46.222656 55.765625 46.222656 L 91.054688 46.222656 L 91.054688 32.757812 Z M 46.527344 32.757812 " fill-opacity="1" fill-rule="evenodd"/></g></svg>