<svg xmlns="http://www.w3.org/2000/svg" xmlns:xlink="http://www.w3.org/1999/xlink" width="256" zoomAndPan="magnify" viewBox="0 0 192 191.999996" height="256" preserveAspectRatio="xMidYMid meet" version="1.0"><defs><clipPath id="5c9dccf675"><path d="M 42.164062 15.042969 L 150 15.042969 L 150 172.542969 L 42.164062 172.542969 Z M 42.164062 15.042969 " clip-rule="nonzero"/></clipPath></defs><g clip-path="url(#5c9dccf675)"><path fill="#ff751f" d="M 86.132812 107.597656 C 84.382812 107.597656 82.957031 106.175781 82.957031 104.425781 C 82.957031 102.675781 84.382812 101.25 86.132812 101.25 C 87.882812 101.25 89.304688 102.675781 89.304688 104.425781 L 89.304688 107.597656 Z M 102.726562 104.425781 C 102.726562 102.675781 104.152344 101.25 105.902344 101.25 C 107.652344 101.25 109.078125 102.675781 109.078125 104.425781 C 109.078125 106.175781 107.652344 107.597656 105.902344 107.597656 L 102.726562 107.597656 Z M 116.960938 134.769531 L 102.726562 134.769531 L 102.726562 112.65625 L 105.902344 112.65625 C 105.988281 112.65625 106.074219 112.652344 106.160156 112.640625 C 110.578125 112.503906 114.132812 108.875 114.132812 104.425781 C 114.132812 99.886719 110.441406 96.191406 105.902344 96.191406 C 101.449219 96.191406 97.820312 99.746094 97.683594 104.164062 C 97.675781 104.25 97.667969 104.335938 97.667969 104.425781 L 97.667969 107.597656 L 94.363281 107.597656 L 94.363281 104.425781 C 94.363281 104.335938 94.359375 104.25 94.351562 104.164062 C 94.210938 99.746094 90.585938 96.191406 86.132812 96.191406 C 81.59375 96.191406 77.898438 99.886719 77.898438 104.425781 C 77.898438 108.875 81.453125 112.503906 85.871094 112.640625 C 85.957031 112.652344 86.042969 112.65625 86.132812 112.65625 L 89.304688 112.65625 L 89.304688 134.769531 L 75.09375 134.769531 C 72.027344 121.699219 66.152344 109.496094 58.019531 99.367188 C 51.027344 90.648438 47.328125 80.128906 47.324219 68.929688 C 47.316406 42.261719 69 20.410156 95.664062 20.222656 C 95.78125 20.222656 95.902344 20.21875 96.019531 20.21875 C 108.964844 20.21875 121.132812 25.234375 130.324219 34.359375 C 139.601562 43.570312 144.707031 55.839844 144.707031 68.914062 C 144.707031 79.886719 141.148438 90.242188 134.40625 98.867188 C 126.039062 109.578125 120.03125 121.953125 116.960938 134.769531 Z M 123.335938 142.796875 C 123.335938 144.433594 122.003906 145.761719 120.371094 145.761719 L 71.664062 145.761719 C 70.027344 145.761719 68.695312 144.433594 68.695312 142.796875 C 68.695312 141.160156 70.027344 139.828125 71.664062 139.828125 L 120.371094 139.828125 C 122.003906 139.828125 123.335938 141.160156 123.335938 142.796875 Z M 120.371094 156.75 L 71.664062 156.75 C 70.027344 156.75 68.695312 155.421875 68.695312 153.785156 C 68.695312 152.148438 70.027344 150.820312 71.664062 150.820312 L 120.371094 150.820312 C 122.003906 150.820312 123.335938 152.148438 123.335938 153.785156 C 123.335938 155.421875 122.003906 156.75 120.371094 156.75 Z M 110.074219 166.011719 C 109.792969 167.03125 108.859375 167.742188 107.804688 167.742188 L 84.230469 167.742188 C 83.175781 167.742188 82.242188 167.03125 81.960938 166.011719 L 80.800781 161.808594 L 111.234375 161.808594 Z M 94.363281 134.769531 L 94.363281 112.65625 L 97.667969 112.65625 L 97.667969 134.769531 Z M 149.765625 68.914062 C 149.765625 54.484375 144.128906 40.9375 133.890625 30.769531 C 123.652344 20.605469 110.066406 15.058594 95.628906 15.164062 C 66.195312 15.371094 42.257812 39.492188 42.269531 68.929688 C 42.269531 81.113281 46.464844 93.046875 54.078125 102.53125 C 61.535156 111.824219 66.980469 122.988281 69.933594 134.964844 C 66.339844 135.761719 63.640625 138.964844 63.640625 142.796875 C 63.640625 144.921875 64.476562 146.851562 65.832031 148.289062 C 64.476562 149.726562 63.640625 151.660156 63.640625 153.785156 C 63.640625 158.210938 67.242188 161.808594 71.664062 161.808594 L 75.550781 161.808594 L 77.085938 167.359375 C 77.96875 170.5625 80.90625 172.796875 84.230469 172.796875 L 107.804688 172.796875 C 111.125 172.796875 114.0625 170.5625 114.949219 167.359375 L 116.484375 161.808594 L 120.371094 161.808594 C 124.792969 161.808594 128.394531 158.210938 128.394531 153.785156 C 128.394531 151.660156 127.554688 149.726562 126.199219 148.289062 C 127.554688 146.851562 128.394531 144.921875 128.394531 142.796875 C 128.394531 138.972656 125.707031 135.773438 122.125 134.972656 C 125.09375 123.203125 130.679688 111.851562 138.394531 101.980469 C 145.832031 92.457031 149.765625 81.023438 149.765625 68.914062 " fill-opacity="1" fill-rule="nonzero"/></g></svg>