<svg xmlns="http://www.w3.org/2000/svg" xmlns:xlink="http://www.w3.org/1999/xlink" width="256" zoomAndPan="magnify" viewBox="0 0 192 191.999996" height="256" preserveAspectRatio="xMidYMid meet" version="1.0"><defs><clipPath id="a39374f1e4"><path d="M 36.015625 26 L 156 26 L 156 179.960938 L 36.015625 179.960938 Z M 36.015625 26 " clip-rule="nonzero"/></clipPath></defs><path fill="#5ce1e6" d="M 59.972656 66.546875 C 59.84375 66.441406 59.660156 66.453125 59.546875 66.574219 C 58.910156 67.25 56.9375 69.347656 56.261719 70.0625 C 56.203125 70.125 56.171875 70.207031 56.175781 70.292969 C 56.183594 70.378906 56.222656 70.460938 56.289062 70.515625 C 57.558594 71.5625 63.148438 76.195312 64.582031 77.382812 C 64.773438 77.539062 65.054688 77.53125 65.234375 77.355469 C 67.160156 75.503906 77.324219 65.710938 79.039062 64.054688 C 79.105469 63.992188 79.140625 63.90625 79.140625 63.816406 C 79.136719 63.730469 79.101562 63.644531 79.035156 63.585938 C 78.34375 62.957031 76.449219 61.242188 75.800781 60.652344 C 75.675781 60.539062 75.484375 60.542969 75.363281 60.65625 C 74.019531 61.9375 66.828125 68.792969 65.234375 70.308594 C 65.050781 70.480469 64.777344 70.492188 64.585938 70.335938 C 63.609375 69.535156 60.789062 67.21875 59.972656 66.546875 Z M 59.972656 66.546875 " fill-opacity="1" fill-rule="evenodd"/><path fill="#5ce1e6" d="M 139.496094 71.453125 C 139.496094 71.355469 139.457031 71.265625 139.390625 71.199219 C 139.324219 71.132812 139.230469 71.09375 139.136719 71.09375 C 134.84375 71.09375 93.402344 71.09375 89.113281 71.09375 C 89.015625 71.09375 88.925781 71.132812 88.859375 71.199219 C 88.792969 71.265625 88.753906 71.355469 88.753906 71.453125 C 88.753906 72.542969 88.753906 75.816406 88.753906 76.90625 C 88.753906 77.003906 88.792969 77.09375 88.859375 77.160156 C 88.925781 77.226562 89.015625 77.265625 89.113281 77.265625 C 93.402344 77.265625 134.84375 77.265625 139.136719 77.265625 C 139.230469 77.265625 139.324219 77.226562 139.390625 77.160156 C 139.457031 77.09375 139.496094 77.003906 139.496094 76.90625 C 139.496094 75.816406 139.496094 72.542969 139.496094 71.453125 Z M 139.496094 71.453125 " fill-opacity="1" fill-rule="evenodd"/><path fill="#5ce1e6" d="M 59.972656 93.488281 C 59.84375 93.386719 59.660156 93.398438 59.546875 93.515625 C 58.910156 94.191406 56.9375 96.289062 56.261719 97.003906 C 56.203125 97.066406 56.171875 97.152344 56.175781 97.238281 C 56.183594 97.324219 56.222656 97.402344 56.289062 97.457031 C 57.558594 98.507812 63.148438 103.136719 64.582031 104.324219 C 64.773438 104.484375 65.054688 104.472656 65.234375 104.300781 C 67.160156 102.445312 77.324219 92.65625 79.039062 90.996094 C 79.105469 90.933594 79.140625 90.851562 79.140625 90.761719 C 79.136719 90.671875 79.101562 90.589844 79.035156 90.527344 C 78.34375 89.902344 76.449219 88.183594 75.800781 87.597656 C 75.675781 87.484375 75.484375 87.488281 75.363281 87.601562 C 74.019531 88.882812 66.828125 95.734375 65.234375 97.253906 C 65.050781 97.425781 64.777344 97.433594 64.585938 97.277344 C 63.609375 96.476562 60.789062 94.160156 59.972656 93.488281 Z M 59.972656 93.488281 " fill-opacity="1" fill-rule="evenodd"/><path fill="#5ce1e6" d="M 139.496094 98.394531 C 139.496094 98.296875 139.457031 98.207031 139.390625 98.140625 C 139.324219 98.074219 139.230469 98.035156 139.136719 98.035156 C 134.84375 98.035156 93.402344 98.035156 89.113281 98.035156 C 89.015625 98.035156 88.925781 98.074219 88.859375 98.140625 C 88.792969 98.207031 88.753906 98.296875 88.753906 98.394531 C 88.753906 99.484375 88.753906 102.757812 88.753906 103.847656 C 88.753906 103.945312 88.792969 104.035156 88.859375 104.101562 C 88.925781 104.167969 89.015625 104.207031 89.113281 104.207031 C 93.402344 104.207031 134.84375 104.207031 139.136719 104.207031 C 139.230469 104.207031 139.324219 104.167969 139.390625 104.101562 C 139.457031 104.035156 139.496094 103.945312 139.496094 103.847656 C 139.496094 102.757812 139.496094 99.484375 139.496094 98.394531 Z M 139.496094 98.394531 " fill-opacity="1" fill-rule="evenodd"/><path fill="#5ce1e6" d="M 59.972656 120.433594 C 59.84375 120.328125 59.660156 120.339844 59.546875 120.457031 C 58.910156 121.132812 56.9375 123.230469 56.261719 123.945312 C 56.203125 124.007812 56.171875 124.09375 56.175781 124.179688 C 56.183594 124.265625 56.222656 124.34375 56.289062 124.398438 C 57.558594 125.449219 63.148438 130.078125 64.582031 131.265625 C 64.773438 131.425781 65.054688 131.414062 65.234375 131.242188 C 67.160156 129.386719 77.324219 119.597656 79.039062 117.9375 C 79.105469 117.875 79.140625 117.792969 79.140625 117.703125 C 79.136719 117.613281 79.101562 117.53125 79.035156 117.472656 C 78.34375 116.84375 76.449219 115.125 75.800781 114.539062 C 75.675781 114.425781 75.484375 114.429688 75.363281 114.542969 C 74.019531 115.824219 66.828125 122.675781 65.234375 124.195312 C 65.050781 124.367188 64.777344 124.375 64.585938 124.21875 C 63.609375 123.421875 60.789062 121.105469 59.972656 120.433594 Z M 59.972656 120.433594 " fill-opacity="1" fill-rule="evenodd"/><path fill="#5ce1e6" d="M 139.496094 125.339844 C 139.496094 125.242188 139.457031 125.152344 139.390625 125.082031 C 139.324219 125.015625 139.230469 124.976562 139.136719 124.976562 C 134.84375 124.976562 93.402344 124.976562 89.113281 124.976562 C 89.015625 124.976562 88.925781 125.015625 88.859375 125.082031 C 88.792969 125.152344 88.753906 125.242188 88.753906 125.339844 C 88.753906 126.429688 88.753906 129.703125 88.753906 130.792969 C 88.753906 130.886719 88.792969 130.980469 88.859375 131.046875 C 88.925781 131.113281 89.015625 131.152344 89.113281 131.152344 C 93.402344 131.152344 134.84375 131.152344 139.136719 131.152344 C 139.230469 131.152344 139.324219 131.113281 139.390625 131.046875 C 139.457031 130.980469 139.496094 130.886719 139.496094 130.792969 C 139.496094 129.703125 139.496094 126.429688 139.496094 125.339844 Z M 139.496094 125.339844 " fill-opacity="1" fill-rule="evenodd"/><path fill="#5ce1e6" d="M 59.972656 147.375 C 59.84375 147.273438 59.660156 147.285156 59.546875 147.402344 C 58.910156 148.078125 56.9375 150.175781 56.261719 150.890625 C 56.203125 150.953125 56.171875 151.039062 56.175781 151.125 C 56.183594 151.210938 56.222656 151.289062 56.289062 151.34375 C 57.558594 152.394531 63.148438 157.023438 64.582031 158.210938 C 64.773438 158.371094 65.054688 158.359375 65.234375 158.1875 C 67.160156 156.332031 77.324219 146.539062 79.039062 144.882812 C 79.105469 144.820312 79.140625 144.738281 79.140625 144.648438 C 79.136719 144.558594 79.101562 144.476562 79.035156 144.414062 C 78.34375 143.789062 76.449219 142.070312 75.800781 141.484375 C 75.675781 141.371094 75.484375 141.371094 75.363281 141.488281 C 74.019531 142.765625 66.828125 149.621094 65.234375 151.140625 C 65.050781 151.3125 64.777344 151.320312 64.585938 151.164062 C 63.609375 150.367188 60.789062 148.046875 59.972656 147.375 Z M 59.972656 147.375 " fill-opacity="1" fill-rule="evenodd"/><path fill="#5ce1e6" d="M 139.496094 152.28125 C 139.496094 152.1875 139.457031 152.09375 139.390625 152.027344 C 139.324219 151.960938 139.230469 151.921875 139.136719 151.921875 C 134.84375 151.921875 93.402344 151.921875 89.113281 151.921875 C 89.015625 151.921875 88.925781 151.960938 88.859375 152.027344 C 88.792969 152.09375 88.753906 152.1875 88.753906 152.28125 C 88.753906 153.375 88.753906 156.648438 88.753906 157.734375 C 88.753906 157.832031 88.792969 157.921875 88.859375 157.992188 C 88.925781 158.058594 89.015625 158.097656 89.113281 158.097656 C 93.402344 158.097656 134.84375 158.097656 139.136719 158.097656 C 139.230469 158.097656 139.324219 158.058594 139.390625 157.992188 C 139.457031 157.921875 139.496094 157.832031 139.496094 157.734375 C 139.496094 156.644531 139.496094 153.371094 139.496094 152.28125 Z M 139.496094 152.28125 " fill-opacity="1" fill-rule="evenodd"/><g clip-path="url(#a39374f1e4)"><path fill="#5ce1e6" d="M 155.910156 42.890625 C 155.90625 42.765625 155.90625 42.640625 155.898438 42.515625 C 155.667969 37.21875 150.945312 32.925781 145.898438 32.878906 C 140.003906 32.859375 134.113281 32.84375 128.214844 32.828125 L 128.214844 28.984375 C 128.214844 27.492188 127.007812 26.285156 125.515625 26.285156 C 121.214844 26.285156 112.289062 26.285156 102.535156 26.285156 C 102.039062 29.4375 99.3125 31.859375 96.019531 31.859375 C 92.722656 31.859375 89.996094 29.4375 89.5 26.285156 C 79.746094 26.285156 70.824219 26.285156 66.519531 26.285156 C 65.027344 26.285156 63.820312 27.492188 63.820312 28.984375 L 63.820312 32.828125 C 57.925781 32.839844 52.035156 32.855469 46.140625 32.878906 C 40.5625 32.929688 36.171875 37.734375 36.125 42.890625 C 35.984375 85.054688 35.984375 127.21875 36.125 169.378906 C 36.175781 174.867188 40.921875 179.339844 46.140625 179.390625 C 79.394531 179.484375 112.648438 179.484375 145.898438 179.390625 C 146.003906 179.390625 146.109375 179.386719 146.210938 179.382812 C 151.5 179.1875 155.859375 174.507812 155.910156 169.378906 C 156.003906 127.214844 156.003906 85.054688 155.910156 42.890625 Z M 149.546875 169.339844 C 149.523438 171.34375 147.789062 172.996094 145.878906 173.027344 C 112.648438 173.347656 79.410156 173.121094 46.175781 173.027344 C 44.171875 173.007812 42.515625 171.273438 42.488281 169.359375 C 42.105469 127.21875 42.34375 85.074219 42.488281 42.929688 C 42.507812 40.886719 44.273438 39.246094 46.203125 39.242188 C 52.109375 39.242188 58.011719 39.238281 63.914062 39.230469 C 64.515625 42.976562 67.765625 45.835938 71.679688 45.835938 C 84.0625 45.835938 107.964844 45.835938 120.347656 45.835938 C 124.273438 45.835938 127.53125 42.960938 128.121094 39.199219 C 134.03125 39.207031 139.945312 39.222656 145.855469 39.242188 C 147.855469 39.261719 149.515625 40.992188 149.542969 42.90625 C 149.976562 85.050781 149.640625 127.195312 149.546875 169.339844 Z M 149.546875 169.339844 " fill-opacity="1" fill-rule="evenodd"/></g><path fill="#5ce1e6" d="M 96.015625 12.527344 C 103.039062 12.527344 108.738281 18.230469 108.738281 25.25 C 108.738281 32.273438 103.039062 37.976562 96.015625 37.976562 C 88.992188 37.976562 83.292969 32.273438 83.292969 25.25 C 83.292969 18.230469 88.996094 12.527344 96.015625 12.527344 Z M 96.015625 18.648438 C 99.660156 18.648438 102.621094 21.609375 102.621094 25.253906 C 102.621094 28.898438 99.660156 31.859375 96.015625 31.859375 C 92.371094 31.859375 89.410156 28.898438 89.410156 25.253906 C 89.410156 21.609375 92.371094 18.648438 96.015625 18.648438 Z M 96.015625 18.648438 " fill-opacity="1" fill-rule="evenodd"/></svg>