<svg xmlns="http://www.w3.org/2000/svg" xmlns:xlink="http://www.w3.org/1999/xlink" width="256" zoomAndPan="magnify" viewBox="0 0 192 191.999996" height="256" preserveAspectRatio="xMidYMid meet" version="1.0"><defs><clipPath id="e49b6f6c28"><path d="M 6.53125 24.972656 L 123 24.972656 L 123 141 L 6.53125 141 Z M 6.53125 24.972656 " clip-rule="nonzero"/></clipPath><clipPath id="b9eee3d526"><path d="M 29 58 L 185.78125 58 L 185.78125 147.222656 L 29 147.222656 Z M 29 58 " clip-rule="nonzero"/></clipPath></defs><g clip-path="url(#e49b6f6c28)"><path fill="#ffcc00" d="M 64.3125 24.976562 C 62.378906 24.976562 60.820312 26.53125 60.820312 28.464844 L 60.820312 40.5 C 60.820312 42.433594 62.378906 43.988281 64.3125 43.988281 C 66.25 43.988281 67.800781 42.433594 67.800781 40.5 L 67.800781 28.464844 C 67.800781 26.53125 66.25 24.976562 64.3125 24.976562 Z M 25.9375 40.867188 C 25.042969 40.867188 24.152344 41.210938 23.46875 41.894531 C 22.105469 43.261719 22.105469 45.460938 23.46875 46.828125 L 31.980469 55.339844 C 33.34375 56.707031 35.542969 56.707031 36.914062 55.339844 C 38.277344 53.972656 38.277344 51.769531 36.914062 50.402344 L 28.402344 41.894531 C 27.722656 41.210938 26.828125 40.867188 25.9375 40.867188 Z M 102.6875 40.867188 C 101.792969 40.867188 100.902344 41.210938 100.21875 41.894531 L 91.710938 50.402344 C 90.34375 51.769531 90.34375 53.972656 91.710938 55.339844 C 93.078125 56.707031 95.277344 56.707031 96.648438 55.339844 L 105.152344 46.828125 C 106.523438 45.460938 106.523438 43.261719 105.152344 41.894531 C 104.46875 41.210938 103.578125 40.867188 102.6875 40.867188 Z M 64.550781 50.125 C 46.660156 50.125 31.945312 64.847656 31.945312 82.738281 C 31.945312 100.625 46.660156 115.347656 64.550781 115.347656 C 82.441406 115.347656 97.164062 100.625 97.164062 82.738281 C 97.164062 64.847656 82.441406 50.125 64.550781 50.125 Z M 10.039062 79.246094 C 8.105469 79.246094 6.550781 80.804688 6.550781 82.738281 C 6.550781 84.667969 8.105469 86.226562 10.039062 86.226562 L 22.074219 86.226562 C 24.007812 86.226562 25.5625 84.667969 25.5625 82.738281 C 25.5625 80.804688 24.007812 79.246094 22.074219 79.246094 Z M 106.546875 79.246094 C 104.613281 79.246094 103.058594 80.804688 103.058594 82.738281 C 103.058594 84.667969 104.613281 86.226562 106.546875 86.226562 L 118.582031 86.226562 C 120.515625 86.226562 122.070312 84.667969 122.070312 82.738281 C 122.070312 80.804688 120.515625 79.246094 118.582031 79.246094 Z M 34.445312 109.109375 C 33.554688 109.109375 32.660156 109.453125 31.980469 110.136719 L 23.46875 118.644531 C 22.105469 120.011719 22.105469 122.210938 23.46875 123.578125 C 24.835938 124.945312 27.039062 124.945312 28.402344 123.578125 L 36.914062 115.070312 C 38.277344 113.703125 38.277344 111.503906 36.914062 110.136719 C 36.230469 109.453125 35.339844 109.109375 34.445312 109.109375 Z M 94.175781 109.109375 C 93.289062 109.109375 92.390625 109.453125 91.710938 110.136719 C 90.34375 111.503906 90.34375 113.703125 91.710938 115.070312 L 100.21875 123.578125 C 101.589844 124.945312 103.789062 124.945312 105.152344 123.578125 C 106.523438 122.210938 106.523438 120.011719 105.152344 118.644531 L 96.648438 110.136719 C 95.960938 109.453125 95.066406 109.109375 94.175781 109.109375 Z M 64.3125 121.484375 C 62.378906 121.484375 60.820312 123.039062 60.820312 124.972656 L 60.820312 137.007812 C 60.820312 138.941406 62.378906 140.496094 64.3125 140.496094 C 66.25 140.496094 67.800781 138.941406 67.800781 137.007812 L 67.800781 124.972656 C 67.800781 123.039062 66.25 121.484375 64.3125 121.484375 Z M 64.3125 121.484375 " fill-opacity="1" fill-rule="nonzero"/></g><g clip-path="url(#b9eee3d526)"><path fill="#ffffff" d="M 120.71875 58.765625 C 108.753906 58.765625 97.386719 63.613281 89.691406 72.003906 C 86.667969 75.023438 84.332031 78.664062 82.84375 82.675781 C 81.269531 86.453125 80.386719 90.441406 80.214844 94.480469 C 79.882812 94.726562 79.476562 94.851562 79.0625 94.84375 L 69.363281 94.84375 C 58.707031 94.84375 49.945312 103.613281 49.945312 114.265625 L 49.945312 115.0625 C 49.945312 115.0625 47.417969 115.0625 47.417969 115.0625 C 37.710938 115.0625 29.726562 123.046875 29.726562 132.75 C 29.726562 132.75 29.726562 132.753906 29.726562 132.753906 C 29.972656 140.816406 36.675781 147.316406 44.742188 147.316406 C 44.894531 147.316406 45.039062 147.316406 45.191406 147.3125 L 157.21875 147.3125 C 172.703125 147.3125 185.441406 134.570312 185.441406 119.089844 C 185.394531 105.820312 174.5 94.910156 161.226562 94.84375 C 161.175781 93.019531 160.972656 91.195312 160.621094 89.394531 C 159.617188 82.007812 155.914062 75.246094 150.21875 70.433594 C 142.558594 62.988281 131.882812 58.761719 120.71875 58.765625 Z M 120.71875 58.765625 " fill-opacity="1" fill-rule="nonzero"/></g></svg>